<?xml version="1.0" standalone="no"?><!DOCTYPE svg PUBLIC "-//W3C//DTD SVG 1.1//EN" "http://www.w3.org/Graphics/SVG/1.1/DTD/svg11.dtd"><svg t="1553049460026" class="icon" style="" viewBox="0 0 1024 1024" version="1.1" xmlns="http://www.w3.org/2000/svg" p-id="21784" xmlns:xlink="http://www.w3.org/1999/xlink" width="200" height="200"><defs><style type="text/css"></style></defs><path d="M517.488 992.279c-260.734 0-472.11-211.376-472.11-472.11s211.376-472.11 472.11-472.11c260.734 0 472.11 211.376 472.11 472.11 0 260.734-211.376 472.11-472.11 472.11zM517.488 93.962c-239.018 0-426.215 187.191-426.215 426.215s187.204 426.215 426.215 426.215c239.018 0 426.215-187.191 426.215-426.215s-187.204-426.215-426.215-426.215z" p-id="21785"></path><path d="M644.309 608.468c-5.17 13.648-20.402 28.898-34.044 34.044l-296.479 112.106c-13.648 5.175-20.503-1.741-15.367-15.367l112.106-296.479c5.17-13.648 20.402-28.898 34.044-34.044l296.479-112.106c13.631-5.17 20.503 1.741 15.367 15.367l-112.106 296.479z" p-id="21786"></path><path d="M607.724 583.599c-3.398 9.018-13.502 19.107-22.507 22.507l-207.433 80.969c-9.018 3.417-13.579-1.133-10.141-10.178l80.969-207.433c3.398-9.018 13.502-19.107 22.514-22.514l204.005-77.516c9.007-3.417 13.579 1.133 10.141 10.141l-77.539 204.055z" p-id="21787"></path><path d="M428.48 429.226c8.287-8.287 22.843-7.081 32.553 2.633l162.899 162.899c9.714 9.714 10.898 24.304 2.633 32.553-8.287 8.287-22.843 7.081-32.553-2.633l-162.899-162.899c-9.678-9.714-10.898-24.304-2.633-32.553z" p-id="21788"></path></svg>