<?xml version="1.0" standalone="no"?><!DOCTYPE svg PUBLIC "-//W3C//DTD SVG 1.1//EN" "http://www.w3.org/Graphics/SVG/1.1/DTD/svg11.dtd"><svg t="1553049478733" class="icon" style="" viewBox="0 0 1024 1024" version="1.1" xmlns="http://www.w3.org/2000/svg" p-id="22537" xmlns:xlink="http://www.w3.org/1999/xlink" width="200" height="200"><defs><style type="text/css"></style></defs><path d="M927.5392 1023.3856H96.4608c-26.8288 0-52.224-11.6736-69.8368-31.744-17.6128-20.2752-25.8048-47.104-22.1184-73.9328C38.5024 665.6 247.1936 489.472 512 489.472s473.4976 176.128 507.4944 428.2368c3.6864 26.624-4.5056 53.6576-22.1184 73.9328-17.6128 20.0704-43.2128 31.744-69.8368 31.744zM512 550.912c-233.0624 0-416.768 154.2144-446.6688 374.9888-1.2288 9.216 1.4336 18.2272 7.5776 25.1904 6.144 6.9632 14.5408 10.6496 23.7568 10.6496h830.8736c9.216 0 17.6128-3.8912 23.7568-10.6496 6.144-6.9632 8.8064-15.9744 7.5776-25.1904C928.768 705.1264 745.0624 550.912 512 550.912zM512 481.28c-132.5056 0-240.2304-107.9296-240.2304-240.4352C271.7696 108.544 379.4944 0.6144 512 0.6144 644.5056 0.6144 752.2304 108.544 752.2304 241.0496S644.5056 481.28 512 481.28z m0-419.2256c-98.5088 0-178.7904 80.2816-178.7904 178.7904 0 98.7136 80.2816 178.9952 178.7904 178.9952 98.5088 0 178.7904-80.2816 178.7904-178.7904 0-98.7136-80.2816-178.9952-178.7904-178.9952z" p-id="22538"></path></svg>